<mxfile host="app.diagrams.net" modified="2021-07-02T11:28:59.499Z" agent="5.0 (Macintosh; Intel Mac OS X 10_15_6) AppleWebKit/537.36 (KHTML, like Gecko) Chrome/91.0.4472.114 Safari/537.36" etag="ilv4eWLSvy5maWB5ICpX" version="14.8.3" type="github">
  <diagram id="2TADyYtRJeXbwywr8u7V" name="第 1 页">
    <mxGraphModel dx="1928" dy="1031" grid="0" gridSize="10" guides="0" tooltips="1" connect="1" arrows="1" fold="1" page="1" pageScale="1" pageWidth="1200" pageHeight="1920" math="0" shadow="0">
      <root>
        <mxCell id="0" />
        <mxCell id="1" parent="0" />
        <mxCell id="0NsFDEd5azYHx1vuOnu8-48" style="edgeStyle=orthogonalEdgeStyle;rounded=0;orthogonalLoop=1;jettySize=auto;html=1;" parent="1" source="0NsFDEd5azYHx1vuOnu8-5" target="0NsFDEd5azYHx1vuOnu8-6" edge="1">
          <mxGeometry relative="1" as="geometry" />
        </mxCell>
        <mxCell id="0NsFDEd5azYHx1vuOnu8-5" value="点击标签搜索页" style="rounded=0;whiteSpace=wrap;html=1;fillColor=#d5e8d4;strokeColor=#82b366;" parent="1" vertex="1">
          <mxGeometry x="110" y="200" width="120" height="60" as="geometry" />
        </mxCell>
        <mxCell id="0NsFDEd5azYHx1vuOnu8-11" style="edgeStyle=orthogonalEdgeStyle;rounded=0;orthogonalLoop=1;jettySize=auto;html=1;entryX=0.5;entryY=0;entryDx=0;entryDy=0;exitX=1;exitY=0.5;exitDx=0;exitDy=0;" parent="1" source="0NsFDEd5azYHx1vuOnu8-6" target="0NsFDEd5azYHx1vuOnu8-45" edge="1">
          <mxGeometry relative="1" as="geometry">
            <mxPoint x="360" y="1540" as="targetPoint" />
            <Array as="points">
              <mxPoint x="660" y="331" />
              <mxPoint x="660" y="1540" />
              <mxPoint x="360" y="1540" />
            </Array>
          </mxGeometry>
        </mxCell>
        <mxCell id="0NsFDEd5azYHx1vuOnu8-12" value="否" style="edgeLabel;html=1;align=center;verticalAlign=middle;resizable=0;points=[];" parent="0NsFDEd5azYHx1vuOnu8-11" vertex="1" connectable="0">
          <mxGeometry x="-0.216" y="2" relative="1" as="geometry">
            <mxPoint as="offset" />
          </mxGeometry>
        </mxCell>
        <mxCell id="0NsFDEd5azYHx1vuOnu8-13" style="edgeStyle=orthogonalEdgeStyle;rounded=0;orthogonalLoop=1;jettySize=auto;html=1;exitX=0.5;exitY=1;exitDx=0;exitDy=0;" parent="1" source="0NsFDEd5azYHx1vuOnu8-6" target="0NsFDEd5azYHx1vuOnu8-9" edge="1">
          <mxGeometry relative="1" as="geometry" />
        </mxCell>
        <mxCell id="0NsFDEd5azYHx1vuOnu8-49" value="是" style="edgeLabel;html=1;align=center;verticalAlign=middle;resizable=0;points=[];" parent="0NsFDEd5azYHx1vuOnu8-13" vertex="1" connectable="0">
          <mxGeometry x="0.3294" y="1" relative="1" as="geometry">
            <mxPoint as="offset" />
          </mxGeometry>
        </mxCell>
        <mxCell id="0NsFDEd5azYHx1vuOnu8-6" value="标签是否用于搜索？" style="rhombus;whiteSpace=wrap;html=1;fillColor=#dae8fc;strokeColor=#6c8ebf;" parent="1" vertex="1">
          <mxGeometry x="130" y="302" width="80" height="57" as="geometry" />
        </mxCell>
        <mxCell id="0NsFDEd5azYHx1vuOnu8-47" style="edgeStyle=orthogonalEdgeStyle;rounded=0;orthogonalLoop=1;jettySize=auto;html=1;exitX=0.5;exitY=1;exitDx=0;exitDy=0;entryX=0.5;entryY=0;entryDx=0;entryDy=0;" parent="1" target="0NsFDEd5azYHx1vuOnu8-5" edge="1">
          <mxGeometry relative="1" as="geometry">
            <mxPoint x="169" y="177" as="sourcePoint" />
          </mxGeometry>
        </mxCell>
        <mxCell id="0NsFDEd5azYHx1vuOnu8-14" style="edgeStyle=orthogonalEdgeStyle;rounded=0;orthogonalLoop=1;jettySize=auto;html=1;entryX=0.5;entryY=0;entryDx=0;entryDy=0;" parent="1" source="0NsFDEd5azYHx1vuOnu8-9" target="0NsFDEd5azYHx1vuOnu8-10" edge="1">
          <mxGeometry relative="1" as="geometry" />
        </mxCell>
        <mxCell id="0NsFDEd5azYHx1vuOnu8-9" value="搜索条件中可见用于搜索的标签" style="rounded=0;whiteSpace=wrap;html=1;fillColor=#dae8fc;strokeColor=#6c8ebf;" parent="1" vertex="1">
          <mxGeometry x="110" y="410" width="120" height="60" as="geometry" />
        </mxCell>
        <mxCell id="0NsFDEd5azYHx1vuOnu8-21" style="edgeStyle=orthogonalEdgeStyle;rounded=0;orthogonalLoop=1;jettySize=auto;html=1;exitX=0.5;exitY=1;exitDx=0;exitDy=0;entryX=0.5;entryY=0;entryDx=0;entryDy=0;" parent="1" source="0NsFDEd5azYHx1vuOnu8-10" target="0NsFDEd5azYHx1vuOnu8-15" edge="1">
          <mxGeometry relative="1" as="geometry" />
        </mxCell>
        <mxCell id="0NsFDEd5azYHx1vuOnu8-10" value="进入标签搜索页" style="rounded=0;whiteSpace=wrap;html=1;fillColor=#d5e8d4;strokeColor=#82b366;" parent="1" vertex="1">
          <mxGeometry x="110" y="500" width="120" height="60" as="geometry" />
        </mxCell>
        <mxCell id="0NsFDEd5azYHx1vuOnu8-22" style="edgeStyle=orthogonalEdgeStyle;rounded=0;orthogonalLoop=1;jettySize=auto;html=1;entryX=0.5;entryY=0;entryDx=0;entryDy=0;" parent="1" source="0NsFDEd5azYHx1vuOnu8-15" target="0NsFDEd5azYHx1vuOnu8-19" edge="1">
          <mxGeometry relative="1" as="geometry" />
        </mxCell>
        <mxCell id="0NsFDEd5azYHx1vuOnu8-15" value="勾选需要搜索的标签" style="rounded=0;whiteSpace=wrap;html=1;fillColor=#d5e8d4;strokeColor=#82b366;" parent="1" vertex="1">
          <mxGeometry x="110" y="585" width="120" height="60" as="geometry" />
        </mxCell>
        <mxCell id="0NsFDEd5azYHx1vuOnu8-17" value="用户操作" style="rounded=0;whiteSpace=wrap;html=1;fillColor=#d5e8d4;strokeColor=#82b366;" parent="1" vertex="1">
          <mxGeometry x="361" y="106" width="86" height="26" as="geometry" />
        </mxCell>
        <mxCell id="0NsFDEd5azYHx1vuOnu8-18" value="系统操作" style="rounded=0;whiteSpace=wrap;html=1;fillColor=#dae8fc;strokeColor=#6c8ebf;" parent="1" vertex="1">
          <mxGeometry x="463" y="104" width="83" height="29" as="geometry" />
        </mxCell>
        <mxCell id="0NsFDEd5azYHx1vuOnu8-23" style="edgeStyle=orthogonalEdgeStyle;rounded=0;orthogonalLoop=1;jettySize=auto;html=1;entryX=0.5;entryY=0;entryDx=0;entryDy=0;" parent="1" source="0NsFDEd5azYHx1vuOnu8-19" target="0NsFDEd5azYHx1vuOnu8-20" edge="1">
          <mxGeometry relative="1" as="geometry" />
        </mxCell>
        <mxCell id="0NsFDEd5azYHx1vuOnu8-19" value="点击搜索按钮" style="rounded=0;whiteSpace=wrap;html=1;fillColor=#d5e8d4;strokeColor=#82b366;" parent="1" vertex="1">
          <mxGeometry x="110" y="670" width="120" height="60" as="geometry" />
        </mxCell>
        <mxCell id="0NsFDEd5azYHx1vuOnu8-33" style="edgeStyle=orthogonalEdgeStyle;rounded=0;orthogonalLoop=1;jettySize=auto;html=1;exitX=0.5;exitY=1;exitDx=0;exitDy=0;entryX=0.5;entryY=0;entryDx=0;entryDy=0;" parent="1" source="0NsFDEd5azYHx1vuOnu8-20" target="0NsFDEd5azYHx1vuOnu8-24" edge="1">
          <mxGeometry relative="1" as="geometry" />
        </mxCell>
        <mxCell id="0NsFDEd5azYHx1vuOnu8-20" value="计算符合标签的患者范围" style="rounded=0;whiteSpace=wrap;html=1;fillColor=#dae8fc;strokeColor=#6c8ebf;" parent="1" vertex="1">
          <mxGeometry x="110" y="760" width="120" height="60" as="geometry" />
        </mxCell>
        <mxCell id="0NsFDEd5azYHx1vuOnu8-26" value="有" style="edgeStyle=orthogonalEdgeStyle;rounded=0;orthogonalLoop=1;jettySize=auto;html=1;exitX=0.5;exitY=1;exitDx=0;exitDy=0;entryX=0.5;entryY=0;entryDx=0;entryDy=0;" parent="1" source="0NsFDEd5azYHx1vuOnu8-24" target="0NsFDEd5azYHx1vuOnu8-25" edge="1">
          <mxGeometry relative="1" as="geometry" />
        </mxCell>
        <mxCell id="0NsFDEd5azYHx1vuOnu8-35" style="edgeStyle=orthogonalEdgeStyle;rounded=0;orthogonalLoop=1;jettySize=auto;html=1;entryX=0.5;entryY=0;entryDx=0;entryDy=0;" parent="1" source="0NsFDEd5azYHx1vuOnu8-24" target="0NsFDEd5azYHx1vuOnu8-27" edge="1">
          <mxGeometry relative="1" as="geometry" />
        </mxCell>
        <mxCell id="0NsFDEd5azYHx1vuOnu8-24" value="需要展示患者的标签是否有搜索条件？" style="rhombus;whiteSpace=wrap;html=1;fillColor=#dae8fc;strokeColor=#6c8ebf;" parent="1" vertex="1">
          <mxGeometry x="105" y="840" width="130" height="80" as="geometry" />
        </mxCell>
        <mxCell id="0NsFDEd5azYHx1vuOnu8-34" style="edgeStyle=orthogonalEdgeStyle;rounded=0;orthogonalLoop=1;jettySize=auto;html=1;exitX=0.5;exitY=1;exitDx=0;exitDy=0;entryX=0.5;entryY=0;entryDx=0;entryDy=0;" parent="1" source="0NsFDEd5azYHx1vuOnu8-25" target="0NsFDEd5azYHx1vuOnu8-28" edge="1">
          <mxGeometry relative="1" as="geometry" />
        </mxCell>
        <mxCell id="0NsFDEd5azYHx1vuOnu8-25" value="有搜索条件的标签" style="rounded=0;whiteSpace=wrap;html=1;fillColor=#dae8fc;strokeColor=#6c8ebf;" parent="1" vertex="1">
          <mxGeometry x="110" y="960" width="120" height="60" as="geometry" />
        </mxCell>
        <mxCell id="0NsFDEd5azYHx1vuOnu8-36" style="edgeStyle=orthogonalEdgeStyle;rounded=0;orthogonalLoop=1;jettySize=auto;html=1;entryX=0.5;entryY=0;entryDx=0;entryDy=0;" parent="1" source="0NsFDEd5azYHx1vuOnu8-27" target="0NsFDEd5azYHx1vuOnu8-29" edge="1">
          <mxGeometry relative="1" as="geometry" />
        </mxCell>
        <mxCell id="0NsFDEd5azYHx1vuOnu8-27" value="无搜索条件的标签" style="rounded=0;whiteSpace=wrap;html=1;fillColor=#dae8fc;strokeColor=#6c8ebf;" parent="1" vertex="1">
          <mxGeometry x="300" y="960" width="120" height="60" as="geometry" />
        </mxCell>
        <mxCell id="0NsFDEd5azYHx1vuOnu8-43" style="edgeStyle=orthogonalEdgeStyle;rounded=0;orthogonalLoop=1;jettySize=auto;html=1;exitX=0.5;exitY=1;exitDx=0;exitDy=0;" parent="1" source="0NsFDEd5azYHx1vuOnu8-28" target="0NsFDEd5azYHx1vuOnu8-40" edge="1">
          <mxGeometry relative="1" as="geometry">
            <Array as="points">
              <mxPoint x="170" y="1280" />
              <mxPoint x="360" y="1280" />
            </Array>
          </mxGeometry>
        </mxCell>
        <mxCell id="0NsFDEd5azYHx1vuOnu8-28" value="按照用户的勾选顺序进行展示" style="rounded=0;whiteSpace=wrap;html=1;fillColor=#dae8fc;strokeColor=#6c8ebf;" parent="1" vertex="1">
          <mxGeometry x="110" y="1040" width="120" height="60" as="geometry" />
        </mxCell>
        <mxCell id="0NsFDEd5azYHx1vuOnu8-37" style="edgeStyle=orthogonalEdgeStyle;rounded=0;orthogonalLoop=1;jettySize=auto;html=1;entryX=0.5;entryY=0;entryDx=0;entryDy=0;" parent="1" source="0NsFDEd5azYHx1vuOnu8-29" target="0NsFDEd5azYHx1vuOnu8-30" edge="1">
          <mxGeometry relative="1" as="geometry" />
        </mxCell>
        <mxCell id="0NsFDEd5azYHx1vuOnu8-38" style="edgeStyle=orthogonalEdgeStyle;rounded=0;orthogonalLoop=1;jettySize=auto;html=1;entryX=0.5;entryY=0;entryDx=0;entryDy=0;" parent="1" source="0NsFDEd5azYHx1vuOnu8-29" target="0NsFDEd5azYHx1vuOnu8-31" edge="1">
          <mxGeometry relative="1" as="geometry" />
        </mxCell>
        <mxCell id="0NsFDEd5azYHx1vuOnu8-29" value="标签设为隐藏or展示" style="rhombus;whiteSpace=wrap;html=1;fillColor=#dae8fc;strokeColor=#6c8ebf;" parent="1" vertex="1">
          <mxGeometry x="300" y="1050" width="120" height="70" as="geometry" />
        </mxCell>
        <mxCell id="0NsFDEd5azYHx1vuOnu8-41" style="edgeStyle=orthogonalEdgeStyle;rounded=0;orthogonalLoop=1;jettySize=auto;html=1;" parent="1" source="0NsFDEd5azYHx1vuOnu8-30" target="0NsFDEd5azYHx1vuOnu8-40" edge="1">
          <mxGeometry relative="1" as="geometry" />
        </mxCell>
        <mxCell id="0NsFDEd5azYHx1vuOnu8-30" value="隐藏的标签不展示" style="rounded=0;whiteSpace=wrap;html=1;fillColor=#dae8fc;strokeColor=#6c8ebf;" parent="1" vertex="1">
          <mxGeometry x="300" y="1160" width="120" height="60" as="geometry" />
        </mxCell>
        <mxCell id="0NsFDEd5azYHx1vuOnu8-39" style="edgeStyle=orthogonalEdgeStyle;rounded=0;orthogonalLoop=1;jettySize=auto;html=1;entryX=0.5;entryY=0;entryDx=0;entryDy=0;" parent="1" source="0NsFDEd5azYHx1vuOnu8-31" target="0NsFDEd5azYHx1vuOnu8-32" edge="1">
          <mxGeometry relative="1" as="geometry" />
        </mxCell>
        <mxCell id="0NsFDEd5azYHx1vuOnu8-31" value="展示的标签" style="rounded=0;whiteSpace=wrap;html=1;fillColor=#dae8fc;strokeColor=#6c8ebf;" parent="1" vertex="1">
          <mxGeometry x="470" y="1160" width="120" height="60" as="geometry" />
        </mxCell>
        <mxCell id="0NsFDEd5azYHx1vuOnu8-42" style="edgeStyle=orthogonalEdgeStyle;rounded=0;orthogonalLoop=1;jettySize=auto;html=1;" parent="1" source="0NsFDEd5azYHx1vuOnu8-32" edge="1">
          <mxGeometry relative="1" as="geometry">
            <mxPoint x="360" y="1349.9999999999998" as="targetPoint" />
          </mxGeometry>
        </mxCell>
        <mxCell id="0NsFDEd5azYHx1vuOnu8-32" value="按照标签引用的变量顺序展示" style="rounded=0;whiteSpace=wrap;html=1;fillColor=#dae8fc;strokeColor=#6c8ebf;" parent="1" vertex="1">
          <mxGeometry x="470" y="1250" width="120" height="60" as="geometry" />
        </mxCell>
        <mxCell id="0NsFDEd5azYHx1vuOnu8-50" style="edgeStyle=orthogonalEdgeStyle;rounded=0;orthogonalLoop=1;jettySize=auto;html=1;exitX=0.5;exitY=1;exitDx=0;exitDy=0;entryX=0.5;entryY=0;entryDx=0;entryDy=0;" parent="1" source="0NsFDEd5azYHx1vuOnu8-40" target="0NsFDEd5azYHx1vuOnu8-44" edge="1">
          <mxGeometry relative="1" as="geometry" />
        </mxCell>
        <mxCell id="0NsFDEd5azYHx1vuOnu8-40" value="展示搜索的患者，并每个患者展示标签" style="rounded=0;whiteSpace=wrap;html=1;fillColor=#dae8fc;strokeColor=#6c8ebf;" parent="1" vertex="1">
          <mxGeometry x="300" y="1350" width="120" height="60" as="geometry" />
        </mxCell>
        <mxCell id="0NsFDEd5azYHx1vuOnu8-46" style="edgeStyle=orthogonalEdgeStyle;rounded=0;orthogonalLoop=1;jettySize=auto;html=1;exitX=0.5;exitY=1;exitDx=0;exitDy=0;" parent="1" source="0NsFDEd5azYHx1vuOnu8-44" edge="1">
          <mxGeometry relative="1" as="geometry">
            <mxPoint x="360" y="1570" as="targetPoint" />
          </mxGeometry>
        </mxCell>
        <mxCell id="0NsFDEd5azYHx1vuOnu8-44" value="查看符合条件的患者（同时，可浏览患者的标签）" style="rounded=0;whiteSpace=wrap;html=1;fillColor=#d5e8d4;strokeColor=#82b366;" parent="1" vertex="1">
          <mxGeometry x="300" y="1440" width="120" height="60" as="geometry" />
        </mxCell>
        <mxCell id="0NsFDEd5azYHx1vuOnu8-45" value="结束" style="ellipse;whiteSpace=wrap;html=1;aspect=fixed;" parent="1" vertex="1">
          <mxGeometry x="340" y="1570" width="40" height="40" as="geometry" />
        </mxCell>
        <mxCell id="0NsFDEd5azYHx1vuOnu8-51" value="图例说明：" style="text;html=1;strokeColor=none;fillColor=none;align=center;verticalAlign=middle;whiteSpace=wrap;rounded=0;" parent="1" vertex="1">
          <mxGeometry x="357" y="80" width="69" height="20" as="geometry" />
        </mxCell>
        <mxCell id="0NsFDEd5azYHx1vuOnu8-52" value="标签搜索功能流程图：" style="text;html=1;strokeColor=none;fillColor=none;align=center;verticalAlign=middle;whiteSpace=wrap;rounded=0;" parent="1" vertex="1">
          <mxGeometry x="60" y="72" width="151" height="20" as="geometry" />
        </mxCell>
        <mxCell id="0NsFDEd5azYHx1vuOnu8-53" value="配置标签功能流程图：" style="text;html=1;strokeColor=none;fillColor=none;align=center;verticalAlign=middle;whiteSpace=wrap;rounded=0;" parent="1" vertex="1">
          <mxGeometry x="908" y="63" width="151" height="20" as="geometry" />
        </mxCell>
        <mxCell id="lo-D50GMY3HxLi5D7oOY-1" value="" style="edgeStyle=orthogonalEdgeStyle;rounded=0;orthogonalLoop=1;jettySize=auto;html=1;" edge="1" parent="1" source="0NsFDEd5azYHx1vuOnu8-54" target="0NsFDEd5azYHx1vuOnu8-55">
          <mxGeometry relative="1" as="geometry" />
        </mxCell>
        <mxCell id="0NsFDEd5azYHx1vuOnu8-54" value="开始" style="ellipse;whiteSpace=wrap;html=1;aspect=fixed;" parent="1" vertex="1">
          <mxGeometry x="962" y="121" width="40" height="40" as="geometry" />
        </mxCell>
        <mxCell id="lo-D50GMY3HxLi5D7oOY-4" style="edgeStyle=orthogonalEdgeStyle;rounded=0;orthogonalLoop=1;jettySize=auto;html=1;entryX=0.5;entryY=0;entryDx=0;entryDy=0;" edge="1" parent="1" source="0NsFDEd5azYHx1vuOnu8-55" target="0NsFDEd5azYHx1vuOnu8-78">
          <mxGeometry relative="1" as="geometry" />
        </mxCell>
        <mxCell id="0NsFDEd5azYHx1vuOnu8-55" value="标签配置" style="rounded=0;whiteSpace=wrap;html=1;fillColor=#d5e8d4;strokeColor=#82b366;" parent="1" vertex="1">
          <mxGeometry x="922" y="201" width="120" height="47" as="geometry" />
        </mxCell>
        <mxCell id="lo-D50GMY3HxLi5D7oOY-6" style="edgeStyle=orthogonalEdgeStyle;rounded=0;orthogonalLoop=1;jettySize=auto;html=1;exitX=0.5;exitY=1;exitDx=0;exitDy=0;entryX=0.5;entryY=0;entryDx=0;entryDy=0;" edge="1" parent="1" source="0NsFDEd5azYHx1vuOnu8-62" target="0NsFDEd5azYHx1vuOnu8-69">
          <mxGeometry relative="1" as="geometry" />
        </mxCell>
        <mxCell id="0NsFDEd5azYHx1vuOnu8-62" value="不用于搜索的标签" style="rounded=0;whiteSpace=wrap;html=1;fillColor=#d5e8d4;strokeColor=#82b366;" parent="1" vertex="1">
          <mxGeometry x="1103" y="393" width="120" height="60" as="geometry" />
        </mxCell>
        <mxCell id="0NsFDEd5azYHx1vuOnu8-67" style="edgeStyle=orthogonalEdgeStyle;rounded=0;orthogonalLoop=1;jettySize=auto;html=1;entryX=0.5;entryY=0;entryDx=0;entryDy=0;" parent="1" source="0NsFDEd5azYHx1vuOnu8-69" target="0NsFDEd5azYHx1vuOnu8-71" edge="1">
          <mxGeometry relative="1" as="geometry" />
        </mxCell>
        <mxCell id="lo-D50GMY3HxLi5D7oOY-17" value="隐藏" style="edgeLabel;html=1;align=center;verticalAlign=middle;resizable=0;points=[];" vertex="1" connectable="0" parent="0NsFDEd5azYHx1vuOnu8-67">
          <mxGeometry x="-0.2699" relative="1" as="geometry">
            <mxPoint as="offset" />
          </mxGeometry>
        </mxCell>
        <mxCell id="0NsFDEd5azYHx1vuOnu8-68" style="edgeStyle=orthogonalEdgeStyle;rounded=0;orthogonalLoop=1;jettySize=auto;html=1;entryX=0.5;entryY=0;entryDx=0;entryDy=0;" parent="1" source="0NsFDEd5azYHx1vuOnu8-69" target="0NsFDEd5azYHx1vuOnu8-73" edge="1">
          <mxGeometry relative="1" as="geometry" />
        </mxCell>
        <mxCell id="lo-D50GMY3HxLi5D7oOY-16" value="展示" style="edgeLabel;html=1;align=center;verticalAlign=middle;resizable=0;points=[];" vertex="1" connectable="0" parent="0NsFDEd5azYHx1vuOnu8-68">
          <mxGeometry x="-0.5318" y="-3" relative="1" as="geometry">
            <mxPoint as="offset" />
          </mxGeometry>
        </mxCell>
        <mxCell id="0NsFDEd5azYHx1vuOnu8-69" value="标签设为隐藏or展示" style="rhombus;whiteSpace=wrap;html=1;fillColor=#d5e8d4;strokeColor=#82b366;" parent="1" vertex="1">
          <mxGeometry x="1103" y="505" width="120" height="70" as="geometry" />
        </mxCell>
        <mxCell id="lo-D50GMY3HxLi5D7oOY-12" style="edgeStyle=orthogonalEdgeStyle;rounded=0;orthogonalLoop=1;jettySize=auto;html=1;exitX=0.5;exitY=1;exitDx=0;exitDy=0;entryX=0.5;entryY=0;entryDx=0;entryDy=0;" edge="1" parent="1" source="0NsFDEd5azYHx1vuOnu8-71" target="lo-D50GMY3HxLi5D7oOY-10">
          <mxGeometry relative="1" as="geometry">
            <mxPoint x="982.5948809455422" y="883.2647417853861" as="targetPoint" />
            <Array as="points">
              <mxPoint x="1163" y="832" />
              <mxPoint x="983" y="832" />
              <mxPoint x="983" y="888" />
            </Array>
          </mxGeometry>
        </mxCell>
        <mxCell id="0NsFDEd5azYHx1vuOnu8-71" value="隐藏的标签不展示" style="rounded=0;whiteSpace=wrap;html=1;fillColor=#d5e8d4;strokeColor=#82b366;" parent="1" vertex="1">
          <mxGeometry x="1103" y="627" width="120" height="60" as="geometry" />
        </mxCell>
        <mxCell id="0NsFDEd5azYHx1vuOnu8-72" style="edgeStyle=orthogonalEdgeStyle;rounded=0;orthogonalLoop=1;jettySize=auto;html=1;entryX=0.5;entryY=0;entryDx=0;entryDy=0;" parent="1" source="0NsFDEd5azYHx1vuOnu8-73" target="0NsFDEd5azYHx1vuOnu8-75" edge="1">
          <mxGeometry relative="1" as="geometry" />
        </mxCell>
        <mxCell id="0NsFDEd5azYHx1vuOnu8-73" value="其他需要展示的标签" style="rounded=0;whiteSpace=wrap;html=1;fillColor=#d5e8d4;strokeColor=#82b366;" parent="1" vertex="1">
          <mxGeometry x="921" y="624" width="120" height="60" as="geometry" />
        </mxCell>
        <mxCell id="lo-D50GMY3HxLi5D7oOY-13" style="edgeStyle=orthogonalEdgeStyle;rounded=0;orthogonalLoop=1;jettySize=auto;html=1;exitX=0.5;exitY=1;exitDx=0;exitDy=0;" edge="1" parent="1" source="0NsFDEd5azYHx1vuOnu8-75" target="lo-D50GMY3HxLi5D7oOY-10">
          <mxGeometry relative="1" as="geometry" />
        </mxCell>
        <mxCell id="0NsFDEd5azYHx1vuOnu8-75" value="用于搜索的标签展示在前，其他部分标签按照标签展示在后" style="rounded=0;whiteSpace=wrap;html=1;fillColor=#d5e8d4;strokeColor=#82b366;" parent="1" vertex="1">
          <mxGeometry x="890" y="751" width="181" height="49" as="geometry" />
        </mxCell>
        <mxCell id="lo-D50GMY3HxLi5D7oOY-5" style="edgeStyle=orthogonalEdgeStyle;rounded=0;orthogonalLoop=1;jettySize=auto;html=1;exitX=0.5;exitY=1;exitDx=0;exitDy=0;entryX=0.5;entryY=0;entryDx=0;entryDy=0;" edge="1" parent="1" source="0NsFDEd5azYHx1vuOnu8-78" target="lo-D50GMY3HxLi5D7oOY-3">
          <mxGeometry relative="1" as="geometry" />
        </mxCell>
        <mxCell id="lo-D50GMY3HxLi5D7oOY-14" value="是" style="edgeLabel;html=1;align=center;verticalAlign=middle;resizable=0;points=[];" vertex="1" connectable="0" parent="lo-D50GMY3HxLi5D7oOY-5">
          <mxGeometry x="-0.0914" relative="1" as="geometry">
            <mxPoint as="offset" />
          </mxGeometry>
        </mxCell>
        <mxCell id="lo-D50GMY3HxLi5D7oOY-9" style="edgeStyle=orthogonalEdgeStyle;rounded=0;orthogonalLoop=1;jettySize=auto;html=1;exitX=1;exitY=0.5;exitDx=0;exitDy=0;" edge="1" parent="1" source="0NsFDEd5azYHx1vuOnu8-78" target="0NsFDEd5azYHx1vuOnu8-62">
          <mxGeometry relative="1" as="geometry" />
        </mxCell>
        <mxCell id="lo-D50GMY3HxLi5D7oOY-15" value="否" style="edgeLabel;html=1;align=center;verticalAlign=middle;resizable=0;points=[];" vertex="1" connectable="0" parent="lo-D50GMY3HxLi5D7oOY-9">
          <mxGeometry x="-0.0458" y="4" relative="1" as="geometry">
            <mxPoint as="offset" />
          </mxGeometry>
        </mxCell>
        <mxCell id="0NsFDEd5azYHx1vuOnu8-78" value="标签是否用于搜索？" style="rhombus;whiteSpace=wrap;html=1;fillColor=#d5e8d4;strokeColor=#82b366;" parent="1" vertex="1">
          <mxGeometry x="919" y="292" width="125" height="64" as="geometry" />
        </mxCell>
        <mxCell id="0NsFDEd5azYHx1vuOnu8-79" style="edgeStyle=orthogonalEdgeStyle;rounded=0;orthogonalLoop=1;jettySize=auto;html=1;exitX=0.5;exitY=1;exitDx=0;exitDy=0;" parent="1" source="0NsFDEd5azYHx1vuOnu8-53" target="0NsFDEd5azYHx1vuOnu8-53" edge="1">
          <mxGeometry relative="1" as="geometry" />
        </mxCell>
        <mxCell id="lo-D50GMY3HxLi5D7oOY-2" value="&lt;span&gt;标签配置完成&lt;/span&gt;" style="ellipse;whiteSpace=wrap;html=1;" vertex="1" parent="1">
          <mxGeometry x="111" y="119" width="120" height="55" as="geometry" />
        </mxCell>
        <mxCell id="lo-D50GMY3HxLi5D7oOY-8" style="edgeStyle=orthogonalEdgeStyle;rounded=0;orthogonalLoop=1;jettySize=auto;html=1;" edge="1" parent="1" source="lo-D50GMY3HxLi5D7oOY-3" target="0NsFDEd5azYHx1vuOnu8-73">
          <mxGeometry relative="1" as="geometry" />
        </mxCell>
        <mxCell id="lo-D50GMY3HxLi5D7oOY-3" value="用于搜索的标签" style="rounded=0;whiteSpace=wrap;html=1;fillColor=#d5e8d4;strokeColor=#82b366;" vertex="1" parent="1">
          <mxGeometry x="922" y="393" width="120" height="60" as="geometry" />
        </mxCell>
        <mxCell id="lo-D50GMY3HxLi5D7oOY-10" value="结束" style="ellipse;whiteSpace=wrap;html=1;aspect=fixed;" vertex="1" parent="1">
          <mxGeometry x="962" y="861" width="40" height="40" as="geometry" />
        </mxCell>
      </root>
    </mxGraphModel>
  </diagram>
</mxfile>
